<mxfile host="app.diagrams.net" agent="Mozilla/5.0 (Windows NT 10.0; Win64; x64) AppleWebKit/537.36 (KHTML, like Gecko) Chrome/127.0.0.0 Safari/537.36" version="24.7.6">
  <diagram name="Page-1" id="Ic8cUkPEx9-nrHlXFmj3">
    <mxGraphModel dx="695" dy="771" grid="1" gridSize="10" guides="1" tooltips="1" connect="1" arrows="1" fold="1" page="1" pageScale="1" pageWidth="827" pageHeight="1169" math="0" shadow="0">
      <root>
        <mxCell id="0" />
        <mxCell id="1" parent="0" />
        <mxCell id="jz21YcqIspp5hzTMrusQ-1" value="" style="shape=ext;double=1;whiteSpace=wrap;html=1;aspect=fixed;" vertex="1" parent="1">
          <mxGeometry x="100" y="90" width="80" height="80" as="geometry" />
        </mxCell>
        <mxCell id="jz21YcqIspp5hzTMrusQ-2" value="" style="shape=sumEllipse;perimeter=ellipsePerimeter;whiteSpace=wrap;html=1;backgroundOutline=1;" vertex="1" parent="1">
          <mxGeometry x="320" y="90" width="80" height="80" as="geometry" />
        </mxCell>
        <mxCell id="jz21YcqIspp5hzTMrusQ-3" value="" style="shape=sumEllipse;perimeter=ellipsePerimeter;whiteSpace=wrap;html=1;backgroundOutline=1;" vertex="1" parent="1">
          <mxGeometry x="530" y="90" width="80" height="80" as="geometry" />
        </mxCell>
        <mxCell id="jz21YcqIspp5hzTMrusQ-4" value="" style="shape=sumEllipse;perimeter=ellipsePerimeter;whiteSpace=wrap;html=1;backgroundOutline=1;" vertex="1" parent="1">
          <mxGeometry x="315" y="220" width="80" height="80" as="geometry" />
        </mxCell>
        <mxCell id="jz21YcqIspp5hzTMrusQ-5" value="" style="shape=sumEllipse;perimeter=ellipsePerimeter;whiteSpace=wrap;html=1;backgroundOutline=1;" vertex="1" parent="1">
          <mxGeometry x="530" y="225" width="80" height="80" as="geometry" />
        </mxCell>
        <mxCell id="jz21YcqIspp5hzTMrusQ-6" value="" style="shape=sumEllipse;perimeter=ellipsePerimeter;whiteSpace=wrap;html=1;backgroundOutline=1;" vertex="1" parent="1">
          <mxGeometry x="60" y="230" width="80" height="80" as="geometry" />
        </mxCell>
        <mxCell id="jz21YcqIspp5hzTMrusQ-7" value="" style="shape=sumEllipse;perimeter=ellipsePerimeter;whiteSpace=wrap;html=1;backgroundOutline=1;" vertex="1" parent="1">
          <mxGeometry x="325" y="360" width="80" height="80" as="geometry" />
        </mxCell>
        <mxCell id="jz21YcqIspp5hzTMrusQ-8" value="" style="shape=sumEllipse;perimeter=ellipsePerimeter;whiteSpace=wrap;html=1;backgroundOutline=1;" vertex="1" parent="1">
          <mxGeometry x="550" y="350" width="80" height="80" as="geometry" />
        </mxCell>
        <mxCell id="jz21YcqIspp5hzTMrusQ-9" value="" style="shape=sumEllipse;perimeter=ellipsePerimeter;whiteSpace=wrap;html=1;backgroundOutline=1;" vertex="1" parent="1">
          <mxGeometry x="20" y="475" width="80" height="80" as="geometry" />
        </mxCell>
        <mxCell id="jz21YcqIspp5hzTMrusQ-11" value="" style="endArrow=none;html=1;rounded=0;" edge="1" parent="1" source="jz21YcqIspp5hzTMrusQ-1" target="jz21YcqIspp5hzTMrusQ-2">
          <mxGeometry width="50" height="50" relative="1" as="geometry">
            <mxPoint x="340" y="420" as="sourcePoint" />
            <mxPoint x="390" y="370" as="targetPoint" />
          </mxGeometry>
        </mxCell>
        <mxCell id="jz21YcqIspp5hzTMrusQ-12" value="" style="endArrow=none;html=1;rounded=0;" edge="1" parent="1" source="jz21YcqIspp5hzTMrusQ-2" target="jz21YcqIspp5hzTMrusQ-3">
          <mxGeometry width="50" height="50" relative="1" as="geometry">
            <mxPoint x="190" y="140" as="sourcePoint" />
            <mxPoint x="330" y="140" as="targetPoint" />
          </mxGeometry>
        </mxCell>
        <mxCell id="jz21YcqIspp5hzTMrusQ-13" value="" style="endArrow=none;html=1;rounded=0;" edge="1" parent="1" source="jz21YcqIspp5hzTMrusQ-5" target="jz21YcqIspp5hzTMrusQ-3">
          <mxGeometry width="50" height="50" relative="1" as="geometry">
            <mxPoint x="200" y="150" as="sourcePoint" />
            <mxPoint x="340" y="150" as="targetPoint" />
          </mxGeometry>
        </mxCell>
        <mxCell id="jz21YcqIspp5hzTMrusQ-14" value="" style="endArrow=none;html=1;rounded=0;" edge="1" parent="1" source="jz21YcqIspp5hzTMrusQ-4" target="jz21YcqIspp5hzTMrusQ-5">
          <mxGeometry width="50" height="50" relative="1" as="geometry">
            <mxPoint x="210" y="160" as="sourcePoint" />
            <mxPoint x="350" y="160" as="targetPoint" />
          </mxGeometry>
        </mxCell>
        <mxCell id="jz21YcqIspp5hzTMrusQ-15" value="" style="endArrow=none;html=1;rounded=0;" edge="1" parent="1" source="jz21YcqIspp5hzTMrusQ-6" target="jz21YcqIspp5hzTMrusQ-4">
          <mxGeometry width="50" height="50" relative="1" as="geometry">
            <mxPoint x="220" y="170" as="sourcePoint" />
            <mxPoint x="360" y="170" as="targetPoint" />
          </mxGeometry>
        </mxCell>
        <mxCell id="jz21YcqIspp5hzTMrusQ-16" value="" style="endArrow=none;html=1;rounded=0;" edge="1" parent="1" source="jz21YcqIspp5hzTMrusQ-6" target="jz21YcqIspp5hzTMrusQ-89">
          <mxGeometry width="50" height="50" relative="1" as="geometry">
            <mxPoint x="230" y="180" as="sourcePoint" />
            <mxPoint x="370" y="180" as="targetPoint" />
          </mxGeometry>
        </mxCell>
        <mxCell id="jz21YcqIspp5hzTMrusQ-17" value="" style="endArrow=none;html=1;rounded=0;" edge="1" parent="1" source="jz21YcqIspp5hzTMrusQ-9" target="jz21YcqIspp5hzTMrusQ-7">
          <mxGeometry width="50" height="50" relative="1" as="geometry">
            <mxPoint x="240" y="190" as="sourcePoint" />
            <mxPoint x="380" y="190" as="targetPoint" />
          </mxGeometry>
        </mxCell>
        <mxCell id="jz21YcqIspp5hzTMrusQ-18" value="" style="endArrow=none;html=1;rounded=0;" edge="1" parent="1" source="jz21YcqIspp5hzTMrusQ-7" target="jz21YcqIspp5hzTMrusQ-8">
          <mxGeometry width="50" height="50" relative="1" as="geometry">
            <mxPoint x="250" y="200" as="sourcePoint" />
            <mxPoint x="390" y="200" as="targetPoint" />
          </mxGeometry>
        </mxCell>
        <mxCell id="jz21YcqIspp5hzTMrusQ-20" value="My Pc" style="text;strokeColor=none;align=center;fillColor=none;html=1;verticalAlign=middle;whiteSpace=wrap;rounded=0;" vertex="1" parent="1">
          <mxGeometry x="110" y="170" width="60" height="30" as="geometry" />
        </mxCell>
        <mxCell id="jz21YcqIspp5hzTMrusQ-21" value="10.30.0.1" style="text;strokeColor=none;align=center;fillColor=none;html=1;verticalAlign=middle;whiteSpace=wrap;rounded=0;" vertex="1" parent="1">
          <mxGeometry x="540" y="60" width="60" height="30" as="geometry" />
        </mxCell>
        <mxCell id="jz21YcqIspp5hzTMrusQ-22" value="10.200.10.14" style="text;strokeColor=none;align=center;fillColor=none;html=1;verticalAlign=middle;whiteSpace=wrap;rounded=0;" vertex="1" parent="1">
          <mxGeometry x="615" y="245" width="60" height="30" as="geometry" />
        </mxCell>
        <mxCell id="jz21YcqIspp5hzTMrusQ-23" value="103.147.138.250" style="text;strokeColor=none;align=center;fillColor=none;html=1;verticalAlign=middle;whiteSpace=wrap;rounded=0;" vertex="1" parent="1">
          <mxGeometry x="335" y="300" width="60" height="30" as="geometry" />
        </mxCell>
        <mxCell id="jz21YcqIspp5hzTMrusQ-24" value="117.232..137.122" style="text;strokeColor=none;align=center;fillColor=none;html=1;verticalAlign=middle;whiteSpace=wrap;rounded=0;" vertex="1" parent="1">
          <mxGeometry x="65" y="200" width="60" height="30" as="geometry" />
        </mxCell>
        <mxCell id="jz21YcqIspp5hzTMrusQ-25" value="117.216.207.105" style="text;strokeColor=none;align=center;fillColor=none;html=1;verticalAlign=middle;whiteSpace=wrap;rounded=0;" vertex="1" parent="1">
          <mxGeometry x="30" y="555" width="60" height="30" as="geometry" />
        </mxCell>
        <mxCell id="jz21YcqIspp5hzTMrusQ-26" value="162.158.226.28" style="text;strokeColor=none;align=center;fillColor=none;html=1;verticalAlign=middle;whiteSpace=wrap;rounded=0;" vertex="1" parent="1">
          <mxGeometry x="325" y="440" width="60" height="30" as="geometry" />
        </mxCell>
        <mxCell id="jz21YcqIspp5hzTMrusQ-29" value="172.29.192.1" style="text;strokeColor=none;align=center;fillColor=none;html=1;verticalAlign=middle;whiteSpace=wrap;rounded=0;" vertex="1" parent="1">
          <mxGeometry x="335" y="170" width="60" height="30" as="geometry" />
        </mxCell>
        <mxCell id="jz21YcqIspp5hzTMrusQ-30" value="" style="shape=sumEllipse;perimeter=ellipsePerimeter;whiteSpace=wrap;html=1;backgroundOutline=1;" vertex="1" parent="1">
          <mxGeometry x="520" y="520" width="80" height="80" as="geometry" />
        </mxCell>
        <mxCell id="jz21YcqIspp5hzTMrusQ-31" value="" style="shape=sumEllipse;perimeter=ellipsePerimeter;whiteSpace=wrap;html=1;backgroundOutline=1;" vertex="1" parent="1">
          <mxGeometry x="414" y="515" width="80" height="80" as="geometry" />
        </mxCell>
        <mxCell id="jz21YcqIspp5hzTMrusQ-32" value="" style="endArrow=none;html=1;rounded=0;" edge="1" parent="1" source="jz21YcqIspp5hzTMrusQ-31" target="jz21YcqIspp5hzTMrusQ-7">
          <mxGeometry width="50" height="50" relative="1" as="geometry">
            <mxPoint x="340" y="620" as="sourcePoint" />
            <mxPoint x="390" y="570" as="targetPoint" />
          </mxGeometry>
        </mxCell>
        <mxCell id="jz21YcqIspp5hzTMrusQ-33" value="" style="endArrow=none;html=1;rounded=0;" edge="1" parent="1" source="jz21YcqIspp5hzTMrusQ-30" target="jz21YcqIspp5hzTMrusQ-8">
          <mxGeometry width="50" height="50" relative="1" as="geometry">
            <mxPoint x="340" y="620" as="sourcePoint" />
            <mxPoint x="390" y="570" as="targetPoint" />
          </mxGeometry>
        </mxCell>
        <mxCell id="jz21YcqIspp5hzTMrusQ-34" value="10.152.7.38" style="text;strokeColor=none;align=center;fillColor=none;html=1;verticalAlign=middle;whiteSpace=wrap;rounded=0;" vertex="1" parent="1">
          <mxGeometry x="545" y="605" width="60" height="30" as="geometry" />
        </mxCell>
        <mxCell id="jz21YcqIspp5hzTMrusQ-35" value="172.69.176.5" style="text;strokeColor=none;align=center;fillColor=none;html=1;verticalAlign=middle;whiteSpace=wrap;rounded=0;" vertex="1" parent="1">
          <mxGeometry x="429" y="595" width="60" height="30" as="geometry" />
        </mxCell>
        <mxCell id="jz21YcqIspp5hzTMrusQ-36" value="" style="shape=sumEllipse;perimeter=ellipsePerimeter;whiteSpace=wrap;html=1;backgroundOutline=1;" vertex="1" parent="1">
          <mxGeometry x="190" y="580" width="80" height="80" as="geometry" />
        </mxCell>
        <mxCell id="jz21YcqIspp5hzTMrusQ-38" value="" style="endArrow=none;html=1;rounded=0;" edge="1" parent="1" source="jz21YcqIspp5hzTMrusQ-31" target="jz21YcqIspp5hzTMrusQ-36">
          <mxGeometry width="50" height="50" relative="1" as="geometry">
            <mxPoint x="490" y="604" as="sourcePoint" />
            <mxPoint x="555" y="546" as="targetPoint" />
          </mxGeometry>
        </mxCell>
        <mxCell id="jz21YcqIspp5hzTMrusQ-40" value="192.133.11.1" style="text;strokeColor=none;align=center;fillColor=none;html=1;verticalAlign=middle;whiteSpace=wrap;rounded=0;" vertex="1" parent="1">
          <mxGeometry x="200" y="660" width="60" height="30" as="geometry" />
        </mxCell>
        <mxCell id="jz21YcqIspp5hzTMrusQ-43" value="1.640ms" style="text;strokeColor=none;align=center;fillColor=none;html=1;verticalAlign=middle;whiteSpace=wrap;rounded=0;" vertex="1" parent="1">
          <mxGeometry x="220" y="100" width="60" height="30" as="geometry" />
        </mxCell>
        <mxCell id="jz21YcqIspp5hzTMrusQ-44" value="4.043ms" style="text;strokeColor=none;align=center;fillColor=none;html=1;verticalAlign=middle;whiteSpace=wrap;rounded=0;" vertex="1" parent="1">
          <mxGeometry x="440" y="100" width="60" height="30" as="geometry" />
        </mxCell>
        <mxCell id="jz21YcqIspp5hzTMrusQ-45" value="5.840ms" style="text;strokeColor=none;align=center;fillColor=none;html=1;verticalAlign=middle;whiteSpace=wrap;rounded=0;" vertex="1" parent="1">
          <mxGeometry x="570" y="180" width="60" height="30" as="geometry" />
        </mxCell>
        <mxCell id="jz21YcqIspp5hzTMrusQ-46" value="5.390ms" style="text;strokeColor=none;align=center;fillColor=none;html=1;verticalAlign=middle;whiteSpace=wrap;rounded=0;" vertex="1" parent="1">
          <mxGeometry x="440" y="260" width="60" height="30" as="geometry" />
        </mxCell>
        <mxCell id="jz21YcqIspp5hzTMrusQ-47" value="5.513ms" style="text;strokeColor=none;align=center;fillColor=none;html=1;verticalAlign=middle;whiteSpace=wrap;rounded=0;" vertex="1" parent="1">
          <mxGeometry x="200" y="240" width="60" height="30" as="geometry" />
        </mxCell>
        <mxCell id="jz21YcqIspp5hzTMrusQ-48" value="*Lost" style="text;strokeColor=none;align=center;fillColor=none;html=1;verticalAlign=middle;whiteSpace=wrap;rounded=0;" vertex="1" parent="1">
          <mxGeometry x="20" y="420" width="60" height="30" as="geometry" />
        </mxCell>
        <mxCell id="jz21YcqIspp5hzTMrusQ-49" value="26.100ms" style="text;strokeColor=none;align=center;fillColor=none;html=1;verticalAlign=middle;whiteSpace=wrap;rounded=0;" vertex="1" parent="1">
          <mxGeometry x="200" y="460" width="60" height="30" as="geometry" />
        </mxCell>
        <mxCell id="jz21YcqIspp5hzTMrusQ-50" value="90.240ms" style="text;strokeColor=none;align=center;fillColor=none;html=1;verticalAlign=middle;whiteSpace=wrap;rounded=0;" vertex="1" parent="1">
          <mxGeometry x="570" y="470" width="60" height="30" as="geometry" />
        </mxCell>
        <mxCell id="jz21YcqIspp5hzTMrusQ-51" value="74.809ms" style="text;strokeColor=none;align=center;fillColor=none;html=1;verticalAlign=middle;whiteSpace=wrap;rounded=0;" vertex="1" parent="1">
          <mxGeometry x="460" y="360" width="60" height="30" as="geometry" />
        </mxCell>
        <mxCell id="jz21YcqIspp5hzTMrusQ-52" value="74.717ms" style="text;strokeColor=none;align=center;fillColor=none;html=1;verticalAlign=middle;whiteSpace=wrap;rounded=0;" vertex="1" parent="1">
          <mxGeometry x="315" y="585" width="60" height="30" as="geometry" />
        </mxCell>
        <mxCell id="jz21YcqIspp5hzTMrusQ-79" value="" style="shape=sumEllipse;perimeter=ellipsePerimeter;whiteSpace=wrap;html=1;backgroundOutline=1;" vertex="1" parent="1">
          <mxGeometry x="140" y="305" width="80" height="80" as="geometry" />
        </mxCell>
        <mxCell id="jz21YcqIspp5hzTMrusQ-80" value="10.199.47.129" style="text;strokeColor=none;align=center;fillColor=none;html=1;verticalAlign=middle;whiteSpace=wrap;rounded=0;" vertex="1" parent="1">
          <mxGeometry x="150" y="385" width="60" height="30" as="geometry" />
        </mxCell>
        <mxCell id="jz21YcqIspp5hzTMrusQ-81" value="" style="endArrow=none;html=1;rounded=0;" edge="1" parent="1" source="jz21YcqIspp5hzTMrusQ-79" target="jz21YcqIspp5hzTMrusQ-4">
          <mxGeometry width="50" height="50" relative="1" as="geometry">
            <mxPoint x="310" y="320" as="sourcePoint" />
            <mxPoint x="360" y="270" as="targetPoint" />
          </mxGeometry>
        </mxCell>
        <mxCell id="jz21YcqIspp5hzTMrusQ-82" value="" style="endArrow=none;html=1;rounded=0;" edge="1" parent="1" source="jz21YcqIspp5hzTMrusQ-9" target="jz21YcqIspp5hzTMrusQ-79">
          <mxGeometry width="50" height="50" relative="1" as="geometry">
            <mxPoint x="310" y="320" as="sourcePoint" />
            <mxPoint x="360" y="270" as="targetPoint" />
          </mxGeometry>
        </mxCell>
        <mxCell id="jz21YcqIspp5hzTMrusQ-84" value="172.71.196.4" style="text;strokeColor=none;align=center;fillColor=none;html=1;verticalAlign=middle;whiteSpace=wrap;rounded=0;" vertex="1" parent="1">
          <mxGeometry x="610" y="420" width="60" height="30" as="geometry" />
        </mxCell>
        <mxCell id="jz21YcqIspp5hzTMrusQ-85" value="5.675ms" style="text;strokeColor=none;align=center;fillColor=none;html=1;verticalAlign=middle;whiteSpace=wrap;rounded=0;" vertex="1" parent="1">
          <mxGeometry x="240" y="300" width="60" height="30" as="geometry" />
        </mxCell>
        <mxCell id="jz21YcqIspp5hzTMrusQ-86" value="24.230ms" style="text;strokeColor=none;align=center;fillColor=none;html=1;verticalAlign=middle;whiteSpace=wrap;rounded=0;" vertex="1" parent="1">
          <mxGeometry x="90" y="420" width="60" height="30" as="geometry" />
        </mxCell>
        <mxCell id="jz21YcqIspp5hzTMrusQ-89" value="" style="shape=sumEllipse;perimeter=ellipsePerimeter;whiteSpace=wrap;html=1;backgroundOutline=1;" vertex="1" parent="1">
          <mxGeometry y="340" width="80" height="80" as="geometry" />
        </mxCell>
        <mxCell id="jz21YcqIspp5hzTMrusQ-90" value="90.234ms" style="text;strokeColor=none;align=center;fillColor=none;html=1;verticalAlign=middle;whiteSpace=wrap;rounded=0;" vertex="1" parent="1">
          <mxGeometry x="354" y="475" width="60" height="30" as="geometry" />
        </mxCell>
      </root>
    </mxGraphModel>
  </diagram>
</mxfile>
